<svg id="Layer_1" data-name="Layer 1" xmlns="http://www.w3.org/2000/svg" xmlns:xlink="http://www.w3.org/1999/xlink" viewBox="0 0 2480.27 2604.32"><defs><style>.cls-1,.cls-2{fill-rule:evenodd;}.cls-1{fill:url(#linear-gradient);}.cls-2{fill:url(#linear-gradient-2);}.cls-3{font-size:500px;fill:#0a2dff;font-family:Sathu;}.cls-4{fill:#000;}.cls-5{font-size:300px;font-family:SinhalaSangamMN, Sinhala Sangam MN;}.cls-6{letter-spacing:-0.02em;}.cls-7{letter-spacing:0em;}</style><linearGradient id="linear-gradient" x1="1541.69" y1="2090.23" x2="3592.57" y2="2090.23" gradientUnits="userSpaceOnUse"><stop offset="0" stop-color="#0005c9"/><stop offset="1" stop-color="#775aa6"/></linearGradient><linearGradient id="linear-gradient-2" x1="1750.66" y1="1816.93" x2="3294.09" y2="1816.93" xlink:href="#linear-gradient"/></defs><path class="cls-1" d="M1443.2,2075.74c55.65,0,96.29,64.24,51.8,122.6-58.36,44.41-122.56,3.78-122.56-51.86a70.75,70.75,0,0,1,70.76-70.74Zm59.36-355.31c90.63,0,156.83,104.61,84.42,199.67-95.06,72.39-199.66,6.2-199.66-84.43a115.23,115.23,0,0,1,115.24-115.24ZM3096,1539.66c74.16,0,128.31,85.59,69.08,163.38-77.79,59.23-163.38,5.07-163.38-69.08a94.29,94.29,0,0,1,94.3-94.3Zm-932.16,679.15c18.08,44.93,14,101.16-25.7,155.17a26.45,26.45,0,0,1-5.59,5.59c-117.23,85.94-244.79,4.2-244.79-107.36a143.25,143.25,0,0,1,105.16-138.08c133.77-36.73,142.33-129.2,70.85-219-37.72-47.37-42.51-121.32,3.77-186.82a26.41,26.41,0,0,1,5.66-5.85c117.92-89,247.32-6.89,247.32,105.47,0,122,184.51,253.21,288.79,216.2a259,259,0,0,0,41-18.39c70.1-39.74,88.73-104.71,31.16-194-12.93-20.06-18.46-44.78-18.46-70.36a143.18,143.18,0,0,1,143.19-143.18c79.08,0,132,64.89,143.18,143.18,3.45,24.2-2.74,47.87-16.72,69.66-37.32,58.18-67.24,57.25-117.46,77.39-74.5,29.88-80.22,105.67-29.49,207.38,22.94,46,20.89,106.51-19.35,163.4a25.92,25.92,0,0,1-5.67,5.83c-117.72,88.22-246.65,6.2-246.65-106,0-107.06-158.91-208.1-240.95-222.41-38.37-6.7-72.79,17.12-98.11,44.34-43.4,46.65-46.72,127.34-24.92,178.65,5.24,12.33,8.48,25.88,13.8,39.1Zm798.35-262.94c-61,0-105.52,70.38-56.81,134.34,64,48.74,134.35,4.19,134.35-56.79a77.55,77.55,0,0,0-77.54-77.55ZM1781.93,1702.2c55.51,0,96,64.07,51.72,122.31-58.23,44.36-122.31,3.81-122.31-51.71a70.59,70.59,0,0,1,70.59-70.6Zm932.44-391.13c55.51,0,96.06,64.06,51.72,122.3-58.23,44.36-122.31,3.81-122.31-51.71a70.58,70.58,0,0,1,70.59-70.59ZM3329,2125.52c74.16,0,128.32,85.61,69.06,163.39-77.78,59.21-163.36,5.05-163.36-69.1a94.29,94.29,0,0,1,94.3-94.29Zm-68.41-328.78c74.15,0,128.3,85.58,69.08,163.37-77.78,59.24-163.38,5.08-163.38-69.07a94.3,94.3,0,0,1,94.3-94.3Zm-733.86-258.82c-74.15,0-128.31,85.59-69.09,163.37,77.78,59.26,163.38,5.09,163.38-69.07a94.29,94.29,0,0,0-94.29-94.3Zm533.36,793.65a143.3,143.3,0,0,0-135.36,190c28,81-45.18,151.23-97.63,131.46a110.25,110.25,0,0,0-25-6.23c-63.84-8.21-76.1-110.66-49.95-146.92,18.53-25.68,21.25-63.53-6-99.24-62.15-47.3-130.51-4-130.51,55.22a75.32,75.32,0,0,0,42.28,67.71c48.19,23.58,106.62,106.23,56.59,149.6-42,36.39-56.56,103.55-8.64,166.38,92.17,70.14,193.58,6,193.58-81.91a111.52,111.52,0,0,0-4.51-31.51c-19.22-65.55,69.69-125.76,134.18-111.53,40,8.83,86.28.84,131.32-31.16a28.87,28.87,0,0,0,6.45-6.32c86.86-117.42,5-245.54-106.8-245.54ZM1764.48,2023.5c55.51,0,96.06,64.06,51.73,122.29-58.22,44.37-122.32,3.83-122.32-51.7a70.59,70.59,0,0,1,70.59-70.59Zm114.25-616.38c55.5,0,96,64.05,51.74,122.28-58.23,44.38-122.34,3.84-122.34-51.69a70.59,70.59,0,0,1,70.6-70.59Zm395.63-88.32c87.9,0,152.08,101.46,81.85,193.64-92.19,70.18-193.61,6-193.61-81.88a111.76,111.76,0,0,1,111.76-111.76Zm146.89,970.78c-100.95-76.89-215,37.23-138.15,138.16C2384,2504.59,2498.11,2390.51,2421.25,2289.58Z" transform="translate(-1372.44 -1304.12)"/><path class="cls-2" d="M3096,2093.93a70.76,70.76,0,1,1-70.75,70.75,70.75,70.75,0,0,1,70.75-70.75Zm-787-62.71a94.3,94.3,0,0,1,94.29,95.64c-.71,50.79-42.16,92.24-92.95,92.95a94.3,94.3,0,1,1-1.34-188.59ZM2500,1304.12a77.55,77.55,0,1,0,77.54,77.54,77.54,77.54,0,0,0-77.54-77.54Zm-534.91,257.5a70.6,70.6,0,1,1-70.59,70.6,70.6,70.6,0,0,1,70.59-70.6Zm1092.8,211.18a70.6,70.6,0,1,1-70.59,70.59,70.59,70.59,0,0,1,70.59-70.59Zm-148.4,368.34a94.3,94.3,0,1,1-94.3,94.3,94.3,94.3,0,0,1,94.3-94.3Zm0-757.73a94.3,94.3,0,1,1-94.3,94.3,94.3,94.3,0,0,1,94.3-94.3Zm-382.73,413.33a94.3,94.3,0,1,0,94.29,94.3,94.3,94.3,0,0,0-94.29-94.3Zm-762.28-249.09a70.6,70.6,0,1,1-70.59,70.6,70.6,70.6,0,0,1,70.59-70.6Zm-70.59,295.74a70.6,70.6,0,1,1-70.6,70.6,70.6,70.6,0,0,1,70.6-70.6Zm361.44-433.59c26.15,0,47.34,22.12,47.34,49.41s-21.19,49.4-47.34,49.4-47.33-22.11-47.33-49.4,21.19-49.41,47.33-49.41ZM1894.5,1856.62a94.3,94.3,0,1,0,94.3,94.3A94.3,94.3,0,0,0,1894.5,1856.62Z" transform="translate(-1372.44 -1304.12)"/><text class="cls-3" transform="translate(70.75 1745.43)">N<tspan class="cls-4" x="354.39" y="0">QIL</tspan></text><text class="cls-5" transform="translate(70.75 2169.32)">Neurology Quality<tspan x="0" y="360">and Inn</tspan><tspan class="cls-6" x="948.05" y="360">o</tspan><tspan class="cls-7" x="1098.05" y="360">v</tspan><tspan x="1237.5" y="360">ation Lab</tspan></text></svg>